<?xml version="1.0" encoding="utf-8"?>
<!-- Generator: Adobe Illustrator 21.1.0, SVG Export Plug-In . SVG Version: 6.00 Build 0)  -->
<svg version="1.1" id="Layer_1" xmlns="http://www.w3.org/2000/svg" xmlns:xlink="http://www.w3.org/1999/xlink" x="0px" y="0px"
	 width="403px" height="94.7px" viewBox="0 0 403 94.7" style="enable-background:new 0 0 403 94.7;" xml:space="preserve">
<style type="text/css">
	.st0{fill:#FFFFFF;}
</style>
<path class="st0" d="M66.7,34.3H46.5c-0.6,0-1.1-0.5-1.1-1.1c0-0.6,0.5-1.1,1.1-1.1h20.2c0.6,0,1.1,0.5,1.1,1.1
	C67.8,33.8,67.3,34.3,66.7,34.3"/>
<path class="st0" d="M40,34.3h-8.1c-0.6,0-1.1-0.5-1.1-1.1c0-0.6,0.5-1.1,1.1-1.1H40c0.6,0,1.1,0.5,1.1,1.1
	C41,33.8,40.6,34.3,40,34.3"/>
<path class="st0" d="M66.7,40H53.1c-0.6,0-1.1-0.5-1.1-1.1c0-0.6,0.5-1.1,1.1-1.1h13.6c0.6,0,1.1,0.5,1.1,1.1
	C67.8,39.5,67.3,40,66.7,40"/>
<path class="st0" d="M46.5,40H31.9c-0.6,0-1.1-0.5-1.1-1.1c0-0.6,0.5-1.1,1.1-1.1h14.6c0.6,0,1.1,0.5,1.1,1.1
	C47.6,39.5,47.1,40,46.5,40"/>
<path class="st0" d="M66.7,45.7h-25c-0.6,0-1.1-0.5-1.1-1.1c0-0.6,0.5-1.1,1.1-1.1h25c0.6,0,1.1,0.5,1.1,1.1
	C67.8,45.2,67.3,45.7,66.7,45.7"/>
<path class="st0" d="M35.6,45.6h-3.8c-0.6,0-1.1-0.5-1.1-1.1c0-0.6,0.5-1.1,1.1-1.1h3.8c0.6,0,1.1,0.5,1.1,1.1
	C36.7,45.1,36.2,45.6,35.6,45.6"/>
<path class="st0" d="M66.7,51.4H44.7c-0.6,0-1.1-0.5-1.1-1.1c0-0.6,0.5-1.1,1.1-1.1h22.1c0.6,0,1.1,0.5,1.1,1.1
	C67.8,51,67.3,51.4,66.7,51.4"/>
<path class="st0" d="M38.2,51.4h-6.3c-0.6,0-1.1-0.5-1.1-1.1c0-0.6,0.5-1.1,1.1-1.1h6.3c0.6,0,1.1,0.5,1.1,1.1
	C39.2,51,38.8,51.4,38.2,51.4"/>
<path class="st0" d="M66.7,57.1H53.1c-0.6,0-1.1-0.5-1.1-1.1c0-0.6,0.5-1.1,1.1-1.1h13.6c0.6,0,1.1,0.5,1.1,1.1
	C67.8,56.7,67.3,57.1,66.7,57.1"/>
<path class="st0" d="M46.5,57.1H31.9c-0.6,0-1.1-0.5-1.1-1.1c0-0.6,0.5-1.1,1.1-1.1h14.6c0.6,0,1.1,0.5,1.1,1.1
	C47.6,56.7,47.1,57.1,46.5,57.1"/>
<path class="st0" d="M66.7,62.7H47.4c-0.6,0-1.1-0.5-1.1-1.1c0-0.6,0.5-1.1,1.1-1.1h19.3c0.6,0,1.1,0.5,1.1,1.1
	C67.8,62.2,67.3,62.7,66.7,62.7"/>
<path class="st0" d="M41.1,62.7h-9.3c-0.6,0-1.1-0.5-1.1-1.1c0-0.6,0.5-1.1,1.1-1.1h9.3c0.6,0,1.1,0.5,1.1,1.1
	C42.2,62.2,41.7,62.7,41.1,62.7"/>
<path class="st0" d="M94.5,32.1c6.1,0,9.5,2.2,9.5,8.1c0,3.5-0.9,5.2-3.4,6.7c2.6,1.1,3.9,3,3.9,7c0,6.1-3.8,8.8-9.9,8.8H82.6V32.1
	H94.5z M88.7,37.4v7.3h5.5c2.4,0,3.5-1.3,3.5-3.7c0-2.5-1.2-3.6-3.5-3.6H88.7z M88.7,49.9v7.4h5.7c2.6,0,3.9-0.8,3.9-3.8
	c0-2.5-1.5-3.7-3.9-3.7H88.7z"/>
<rect x="110.4" y="32.1" class="st0" width="6.2" height="30.5"/>
<path class="st0" d="M136.5,46.3h8.9v15.8c0,0-6.4,1-10.4,1c-10,0-12.5-5.6-12.5-15.8c0-11.1,3.2-15.8,12.3-15.8
	c4.7,0,10.6,1.3,10.6,1.3l-0.2,4.8c0,0-5.4-0.6-9.5-0.6c-5.3,0-6.9,1.8-6.9,10.3c0,8.1,1.1,10.4,6.7,10.4c1.8,0,3.7-0.2,3.7-0.2
	v-5.9h-2.8V46.3z"/>
<path class="st0" d="M151.8,62.7V32.1h10.3c10.6,0,13,4.5,13,14.7c0,10.4-2,15.8-13,15.8H151.8z M162.1,37.5H158v19.7h4.1
	c6,0,6.6-3.7,6.6-10.5C168.7,40.1,168.1,37.5,162.1,37.5"/>
<path class="st0" d="M184.9,32.1h11.8l6.9,30.5h-6.2l-1.2-5.5h-10.7l-1.2,5.5H178L184.9,32.1z M186.6,51.8h8.3l-3.1-14.5h-2.2
	L186.6,51.8z"/>
<polygon class="st0" points="204,32.1 226.4,32.1 226.4,37.6 218.4,37.6 218.4,62.7 212.2,62.7 212.2,37.6 204,37.6 "/>
<path class="st0" d="M233.8,32.1h11.8l6.9,30.5h-6.2l-1.2-5.5h-10.7l-1.2,5.5h-6.2L233.8,32.1z M235.5,51.8h8.3l-3.1-14.5h-2.2
	L235.5,51.8z"/>
<path class="st0" d="M260.8,52.2v10.5h-3.5V31.6h11.4c6.8,0,9.9,3.3,9.9,10c0,6.8-3.1,10.6-9.9,10.6H260.8z M268.7,49.1
	c4.5,0,6.4-2.7,6.4-7.5c0-4.8-1.9-7-6.4-7h-7.9v14.5H268.7z"/>
<path class="st0" d="M295.1,60.1c4.8,0,7.6-1.9,7.6-6.7V31.6h3.4v21.6c0,7.1-3.9,9.9-11,9.9c-6.8,0-10.7-2.7-10.7-9.9V31.6h3.5v21.7
	C287.8,58.2,290.5,60.1,295.1,60.1"/>
<polygon class="st0" points="313.8,31.6 320,31.6 328.8,57.9 337.6,31.6 343.9,31.6 343.9,62.7 340.4,62.7 340.4,35.3 339.8,35.3 
	330.8,61.5 326.9,61.5 317.9,35.3 317.3,35.3 317.3,62.7 313.8,62.7 "/>
<path class="st0" d="M355.2,52.2v10.5h-3.5V31.6h11.4c6.8,0,9.9,3.3,9.9,10c0,6.8-3.1,10.6-9.9,10.6H355.2z M363.1,49.1
	c4.5,0,6.4-2.7,6.4-7.5c0-4.8-1.9-7-6.4-7h-7.9v14.5H363.1z"/>
</svg>
