<?xml version="1.0" encoding="utf-8"?>
<!-- Generator: Adobe Illustrator 21.1.0, SVG Export Plug-In . SVG Version: 6.00 Build 0)  -->
<svg version="1.1" id="Layer_1" xmlns="http://www.w3.org/2000/svg" xmlns:xlink="http://www.w3.org/1999/xlink" x="0px" y="0px"
	 width="100px" height="100px" viewBox="0 0 100 100" style="enable-background:new 0 0 100 100;" xml:space="preserve">
<style type="text/css">
	.st0{fill:#FFFFFF;}
</style>
<title>sad</title>
<desc>Created with Sketch.</desc>
<g>
	<g>
		<path class="st0" d="M10,70c0,11,9,20,20,20h40c11,0,20-9,20-20V30c0-11-9-20-20-20H30c-11,0-20,9-20,20V70z M30,0h40
			c16.6,0,30,13.4,30,30v40c0,16.6-13.4,30-30,30H30C13.4,100,0,86.6,0,70V30C0,13.4,13.4,0,30,0z"/>
		<g transform="translate(24.000000, 37.000000)">
			<circle class="st0" cx="43" cy="9" r="9"/>
			<circle class="st0" cx="9" cy="9" r="9"/>
		</g>
		<path class="st0" d="M42.6,77.4c0.6-0.2,1.3-0.5,2-0.7c2-0.6,4.1-1,5.9-1s3.8,0.4,5.9,1c0.7,0.2,1.4,0.5,2,0.7
			c0.3,0.1,0.6,0.2,0.7,0.3c1.8,0.8,3.8,0,4.6-1.8s0-3.8-1.8-4.6c-0.8-0.3-2-0.8-3.6-1.3c-2.6-0.8-5.3-1.3-7.9-1.3s-5.2,0.5-7.9,1.3
			c-1.6,0.5-2.8,0.9-3.6,1.3c-1.8,0.8-2.5,2.9-1.8,4.6c0.8,1.8,2.9,2.5,4.6,1.8C42,77.6,42.3,77.5,42.6,77.4z"/>
	</g>
</g>
</svg>
