<?xml version="1.0" encoding="utf-8"?>
<!-- Generator: Adobe Illustrator 21.1.0, SVG Export Plug-In . SVG Version: 6.00 Build 0)  -->
<svg version="1.1" id="Layer_1" xmlns="http://www.w3.org/2000/svg" xmlns:xlink="http://www.w3.org/1999/xlink" x="0px" y="0px"
	 width="100px" height="100px" viewBox="0 0 100 100" style="enable-background:new 0 0 100 100;" xml:space="preserve">
<style type="text/css">
	.st0{fill:#FFFFFF;}
</style>
<title>normal</title>
<desc>Created with Sketch.</desc>
<g>
	<g>
		<path class="st0" d="M10,70c0,11,9,20,20,20h40c11,0,20-9,20-20V30c0-11-9-20-20-20H30c-11,0-20,9-20,20V70z M30,0h40
			c16.6,0,30,13.4,30,30v40c0,16.6-13.4,30-30,30H30C13.4,100,0,86.6,0,70V30C0,13.4,13.4,0,30,0z"/>
		<g transform="translate(24.000000, 37.000000)">
			<circle class="st0" cx="43" cy="9" r="9"/>
			<circle class="st0" cx="9" cy="9" r="9"/>
		</g>
		<path class="st0" d="M60.5,78c1.9,0,3.5-1.6,3.5-3.5S62.4,71,60.5,71h-20c-1.9,0-3.5,1.6-3.5,3.5s1.6,3.5,3.5,3.5H60.5z"/>
	</g>
</g>
</svg>
